<svg xmlns="http://www.w3.org/2000/svg" viewBox="0 0 143.32 143.32"><defs><style>.cls-1{fill:#898989;}</style></defs><title>add</title><g id="图层_2" data-name="图层 2"><g id="图层_12" data-name="图层 12"><path class="cls-1" d="M71.66,0a71.66,71.66,0,1,0,71.66,71.66A71.75,71.75,0,0,0,71.66,0Zm0,133.32a61.66,61.66,0,1,1,61.66-61.66A61.73,61.73,0,0,1,71.66,133.32Z"/><path class="cls-1" d="M108.91,66.66H76.41V34a5,5,0,0,0-10,0v32.7H33.91a5,5,0,1,0,0,10h32.5v30.92a5,5,0,1,0,10,0V76.66h32.5a5,5,0,0,0,0-10Z"/></g></g></svg>