<svg xmlns="http://www.w3.org/2000/svg" viewBox="0 0 190.71 153.67"><defs><style>.cls-1{fill:#898989;}</style></defs><title>home</title><g id="图层_2" data-name="图层 2"><g id="图层_6" data-name="图层 6"><path class="cls-1" d="M188.83,71.82,100.37,1.09A5,5,0,0,0,94.2,1L33.93,47.24a5.23,5.23,0,0,0-1.32.74L1.94,71.78A5,5,0,0,0,8,79.7L30.68,62.34v77.43a13.92,13.92,0,0,0,13.9,13.9H146.13a13.92,13.92,0,0,0,13.9-13.9v-78L182.6,79.65a5,5,0,0,0,6.23-7.83ZM83.53,142.67V99.36a5,5,0,0,1,5-5h13.65a5,5,0,0,1,5,5v43.31Zm66.5-2.9a3.91,3.91,0,0,1-3.9,3.9H117.18V99.36a15,15,0,0,0-15-15H88.53a15,15,0,0,0-15,15v44.31H44.58a3.91,3.91,0,0,1-3.9-3.9V54.67l56.5-43.32L150,53.6Z"/></g></g></svg>