<svg xmlns="http://www.w3.org/2000/svg" viewBox="0 0 135.17 157.96"><defs><style>.cls-1{fill:#898989;}</style></defs><title>lock</title><g id="图层_2" data-name="图层 2"><g id="图层_4" data-name="图层 4"><path class="cls-1" d="M115.23,55h-7.15V42.1C108.08,18.89,89.85,0,67.44,0S26.8,18.89,26.8,42.1V55H19.94A20,20,0,0,0,0,75v63A20,20,0,0,0,19.94,158h95.29A20,20,0,0,0,135.17,138V75A20,20,0,0,0,115.23,55ZM36.8,42.1C36.8,24.4,50.55,10,67.44,10S98.08,24.4,98.08,42.1V55H36.8ZM125.17,138a10,10,0,0,1-9.94,9.94H19.94A10,10,0,0,1,10,138V75A10,10,0,0,1,19.94,65h95.29A10,10,0,0,1,125.17,75Z"/><path class="cls-1" d="M67.59,75.21c-11.32,0-20.53,9.5-20.53,21.17a21.08,21.08,0,0,0,15.38,20.46v16.53a5,5,0,0,0,10,0V113.68a4.82,4.82,0,0,0,.15-1.14,5,5,0,0,0-5-5c-5.81,0-10.53-5-10.53-11.16s4.72-11.17,10.53-11.17,10.52,5,10.52,11.17a11.46,11.46,0,0,1-2.92,7.71,5,5,0,1,0,7.42,6.71,21.45,21.45,0,0,0,5.5-14.42C88.11,84.71,78.9,75.21,67.59,75.21Z"/></g></g></svg>