<svg xmlns="http://www.w3.org/2000/svg" viewBox="0 0 137.28 155.92"><defs><style>.cls-1{fill:#898989;}</style></defs><title>message</title><g id="图层_2" data-name="图层 2"><g id="图层_8" data-name="图层 8"><path class="cls-1" d="M135.39,120.3l-7.64-11.7v-38c0-27.2-17.09-51-41.89-58.95a18.07,18.07,0,0,0-33.58-.42C26.64,18.61,9,42.63,9,70.55v38.28L1.81,120.1a11.6,11.6,0,0,0,9.79,17.82H44.21c5.87,14.77,16.93,18,25.48,18s19.59-3.22,25.46-18l30.41.29h.12a11.6,11.6,0,0,0,9.71-17.94Zm-65.7,25.62c-4.39,0-10.21-1-14.39-8H84.07C79.89,145,74.07,145.92,69.69,145.92Zm57.39-18.51a1.55,1.55,0,0,1-1.4.83h0l-37.74-.36v0H11.6a1.6,1.6,0,0,1-1.35-2.46L19,111.74V70.55C19,46.3,34.73,25.6,57.3,20.19l3-.7L61,16.55a8.15,8.15,0,0,1,16,.21l.67,2.94,2.92.78c21.86,5.84,37.14,26.43,37.14,50.07v41L127,125.77A1.55,1.55,0,0,1,127.08,127.41Z"/></g></g></svg>