<svg xmlns="http://www.w3.org/2000/svg" viewBox="0 0 147.3 157.2"><defs><style>.cls-1{fill:#898989;}</style></defs><title>mine</title><g id="图层_2" data-name="图层 2"><g id="图层_6" data-name="图层 6"><path class="cls-1" d="M95.92,82A44,44,0,0,0,73.65,0c-25.2,0-44,23.25-44,44A44.1,44.1,0,0,0,71.44,88a5,5,0,0,0,2.21.53A63.73,63.73,0,0,1,137.1,147.2H10.2a64,64,0,0,1,25.87-46.38,5,5,0,1,0-5.91-8.06A74,74,0,0,0,0,152.2a5,5,0,0,0,5,5H142.3a5,5,0,0,0,5-5A73.78,73.78,0,0,0,95.92,82ZM39.61,44c0-15.74,14.87-34,34-34a34,34,0,1,1-34,34Z"/></g></g></svg>