<svg xmlns="http://www.w3.org/2000/svg" viewBox="0 0 105.45 149.88"><defs><style>.cls-1{fill:#898989;}</style></defs><title>position</title><g id="图层_2" data-name="图层 2"><g id="图层_10" data-name="图层 10"><path class="cls-1" d="M52.72,24.19A28.54,28.54,0,1,0,81.26,52.72,28.56,28.56,0,0,0,52.72,24.19Zm0,47.07A18.54,18.54,0,1,1,71.26,52.72,18.56,18.56,0,0,1,52.72,71.26Z"/><path class="cls-1" d="M89.3,14.75A52.33,52.33,0,0,0,50.71,0,53,53,0,0,0,.07,50,52.4,52.4,0,0,0,8.23,81l0,0,35.89,63.87a9.78,9.78,0,0,0,8.57,5h0a9.75,9.75,0,0,0,8.58-5L98,79.81h0a52.73,52.73,0,0,0-8.67-65Zm0,60-.15.27L52.73,139.75,17.15,76.45a5.24,5.24,0,0,0-.32-.57,42.45,42.45,0,0,1-6.77-25.37A43,43,0,0,1,51.09,10,42.72,42.72,0,0,1,89.32,74.77Z"/></g></g></svg>