<svg xmlns="http://www.w3.org/2000/svg" viewBox="0 0 150.19 153.78"><defs><style>.cls-1{fill:#898989;}</style></defs><title>resource</title><g id="图层_2" data-name="图层 2"><g id="图层_3" data-name="图层 3"><path class="cls-1" d="M51.41,153.78a5.1,5.1,0,0,1-2.32-.57,5,5,0,0,1-2.1-6.75c6.47-12.35,6.67-15.81,6.5-16.7-.89-.61-4.12-1.16-6.51-1.56-5.67-1-13.44-2.3-21.62-7.1a5.13,5.13,0,0,1-1.22-1c-4.13-4.69-5-13.72-5.65-23.35-.07-1.1-.15-2.36-.23-3.29-.73-.39-1.74-.88-2.56-1.27C9.83,89.35,0,84.59,0,75.08,0,68,5,62,9.49,56.62c2.58-3.1,5.5-6.61,5.9-8.76C17.66,14.24,47.19-.5,73.66,0c14.22.29,27.6,4.7,37.66,12.43A45.19,45.19,0,0,1,129.49,48.3a5,5,0,0,1-4.88,5.12h-.12a5,5,0,0,1-5-4.88c-.61-25.85-24.29-38.1-46-38.53H72.2C49.9,10,27.06,21.86,25.36,48.73c0,.13,0,.26,0,.38-.69,5-4.31,9.31-8.14,13.91-3.37,4-7.18,8.63-7.18,12.06,0,3.24,6.3,6.29,10.06,8.11s6.67,3.22,7.62,6.21c.43,1.34.56,3.12.79,6.7.27,4.19.88,13.66,2.8,16.86,6.3,3.49,12.43,4.53,17.39,5.38,5.82,1,11.32,1.93,13.78,6.91s.77,11.81-6.6,25.85A5,5,0,0,1,51.41,153.78Zm46.15,0a5,5,0,0,1-4.94-4.25L89.23,127.1a5,5,0,1,1,9.89-1.49L102.51,148a5,5,0,0,1-5,5.75Zm.9-39.36H75a5,5,0,0,1,0-10H96.39l13.27-13.28a5,5,0,0,1,3.54-1.46h25.25a5,5,0,0,1,0,10H115.27L102,113A5,5,0,0,1,98.46,114.42ZM90.93,87.6H59.1a5,5,0,1,1,0-10H90.93a5,5,0,0,1,0,10Zm54.26-6.74h-22a5,5,0,0,1-3.43-1.37L99,59.82H68a5,5,0,0,1,0-10H101a5,5,0,0,1,3.43,1.37l20.82,19.67h20a5,5,0,0,1,0,10Z"/></g></g></svg>