<svg xmlns="http://www.w3.org/2000/svg" viewBox="0 0 141.62 134.11"><defs><style>.cls-1{fill:#898989;}</style></defs><title>scan</title><g id="图层_2" data-name="图层 2"><g id="图层_11" data-name="图层 11"><rect class="cls-1" x="5" y="62.06" width="131.62" height="10"/><path class="cls-1" d="M131.62,106c0,10-8.74,18.09-19.49,18.09H29.49C18.74,124.11,10,116,10,106V97.75H0V106c0,15.49,13.23,28.09,29.49,28.09h82.64c16.26,0,29.49-12.6,29.49-28.09V97.75h-10Z"/><path class="cls-1" d="M112.13,0H29.49C13.23,0,0,12.6,0,28.09V40H10V28.09C10,18.12,18.74,10,29.49,10h82.64c10.75,0,19.49,8.12,19.49,18.09V40h10V28.09C141.62,12.6,128.39,0,112.13,0Z"/></g></g></svg>