<svg xmlns="http://www.w3.org/2000/svg" viewBox="0 0 135.61 156.48"><defs><style>.cls-1{fill:#898989;}</style></defs><title>wash</title><g id="图层_2" data-name="图层 2"><g id="图层_10" data-name="图层 10"><path class="cls-1" d="M134.76,94.45c-3-11.24-10.47-18.51-19.11-18.51H67.81a2,2,0,0,0-.24,0H61.65V60.62a5,5,0,0,0-10,0V76H44.08v-43l0-.4c0-.12-.76-11.73,5.15-18.14,2.72-3,6.48-4.38,11.49-4.38C68.46,10,73.8,13.51,77,20.72A35.22,35.22,0,0,1,79.81,33a5,5,0,0,0,5,5h0a5,5,0,0,0,5-5C89.71,21.51,83.51,0,60.7,0,52.86,0,46.52,2.56,41.86,7.6,33.4,16.78,34,31,34.08,33.09V76H20C11.32,76,3.82,83.23.85,94.47c-2.4,9.1.27,21.6,8.14,38.24,4.28,9,10.18,15.72,17.54,19.87a30.87,30.87,0,0,0,15.15,3.9H67.81l.23,0h25.9a30.92,30.92,0,0,0,15.15-3.9c7.36-4.15,13.26-10.84,17.53-19.87C134.5,116.05,137.16,103.54,134.76,94.45Zm-17.18,34c-3.37,7.13-7.88,12.32-13.4,15.44a20.84,20.84,0,0,1-10.24,2.61H67.81l-.23,0H41.68a20.84,20.84,0,0,1-10.24-2.61c-5.52-3.11-10-8.31-13.41-15.43C11.3,114.22,8.77,103.65,10.52,97S16.06,86,20,86H67.81a1.81,1.81,0,0,0,.23,0h47.61c3.9,0,7.7,4.45,9.44,11.06S124.32,114.19,117.58,128.41Z"/></g></g></svg>